#!OML:ASF H:\Terrain\Patient Classification 1\PLAYGROUND\JustinFriday\JustinFriday.ASF
:FULLY-SPECIFIED
:DEGREES
3596
root 15.3596 25.4981 48.2393 180.762 -22.025 -166.773
lowerback 27.7017 4.32582 3.74887
upperback 1.61056 6.44705 0.773826
thorax -13.2506 2.50762 -3.65022
lowerneck -16.1598 -11.2144 14.9342
upperneck -9.52746 -18.5247 2.32489
head -1.63813 -10.223 -2.12291
rclavicle -7.55382e-015 -5.08889e-014
rhumerus 107.31 -39.9163 -80.1333
rradius 50.3759
rwrist -152.916
rhand -37.0282 29.8087
rfingers 7.12502
rthumb -10.1019 360.071
lclavicle -7.55382e-015 -5.08889e-014
lhumerus 19.5557 -46.142 83.4911
lradius 34.2756
lwrist -25.471
lhand -26.1847 -26.4564
lfingers 7.12502
lthumb 0.36737 3.52301
rfemur -42.1129 -2.91458 39.2891
rtibia 63.3158
rfoot -29.6632 -13.0195
rtoes 14.1465
lfemur -41.5097 9.5308 -4.45566
ltibia 73.1408
lfoot -185.656 172.29
ltoes 28.0819
3597
root 15.3689 25.5719 48.2549 180.577 -21.8234 -166.707
lowerback 27.5741 4.37726 3.74943
upperback 1.78255 6.48341 0.794431
thorax -12.9785 2.53213 -3.61818
lowerneck -16.5973 -11.2313 15.0021
upperneck -7.8849 -18.5313 2.23247
head -1.02563 -10.0695 -2.29241
rclavicle -6.87795e-014 3.02153e-014
rhumerus 107.146 -39.9007 -79.8452
rradius 50.1631
rwrist -152.486
rhand -36.8554 29.721
rfingers 7.12502
rthumb -9.93511 359.975
lclavicle -6.87795e-014 3.02153e-014
lhumerus 20.4965 -46.3415 82.6549
lradius 34.2054
lwrist -23.8811
lhand -23.7455 -26.1167
lfingers 7.12502
lthumb 2.72311 3.84571
rfemur -41.3272 -3.03587 39.3362
rtibia 62.2113
rfoot -29.7215 -12.4188
rtoes 15.9753
lfemur -43.3632 10.2999 -4.49836
ltibia 76.6479
lfoot -190.048 178.2
ltoes 4.33088
3598
root 15.3748 25.6219 48.2721 180.274 -21.5803 -166.728
lowerback 27.783 4.43558 3.65677
upperback 1.83514 6.52113 0.775617
thorax -13.0334 2.54521 -3.61475
lowerneck -16.6621 -11.281 15.0848
upperneck -6.27993 -18.5236 2.19036
head -0.485871 -9.90646 -2.41562
rclavicle -6.40087e-014 6.36111e-015
rhumerus 106.711 -39.8788 -79.4584
rradius 49.9396
rwrist -152.404
rhand -36.5832 29.7276
rfingers 7.12502
rthumb -9.67251 359.97
lclavicle -6.40087e-014 6.36111e-015
lhumerus 20.9835 -46.4402 82.1765
lradius 34.1354
lwrist -22.3292
lhand -20.9776 -25.0469
lfingers 7.12502
lthumb 5.39595 4.86444
rfemur -40.4709 -3.23 39.2979
rtibia 61.1538
rfoot -28.8142 -12.1835
rtoes 15.3187
lfemur -45.22 10.962 -4.6693
ltibia 80.0267
lfoot -191.248 181.064
ltoes -3.78926
3599
root 15.3814 25.6629 48.2999 179.818 -21.2896 -166.737
lowerback 28.2977 4.50822 3.56271
upperback 1.87703 6.5825 0.766641
thorax -13.2633 2.55562 -3.63408
lowerneck -16.8113 -11.318 15.04
upperneck -4.49152 -18.5164 2.19984
head 0.144653 -9.72589 -2.52512
rclavicle 9.06458e-014 2.94201e-014
rhumerus 106.21 -39.896 -79.0429
rradius 49.6664
rwrist -152.456
rhand -36.2868 29.5553
rfingers 7.12502
rthumb -9.38657 359.784
lclavicle 9.06458e-014 2.94201e-014
lhumerus 21.6693 -46.7779 81.4429
lradius 34.0136
lwrist -20.1968
lhand -18.5459 -24.2007
lfingers 7.12502
lthumb 7.74348 5.63749
rfemur -39.5176 -3.46225 39.3044
rtibia 60.056
rfoot -27.8189 -12.5815
rtoes 13.0474
lfemur -46.5893 11.5536 -4.46736
ltibia 83.8844
lfoot -192.963 179.458
ltoes 2.75099
3600
root 15.3831 25.7053 48.3334 179.208 -21.0607 -166.646
lowerback 28.9089 4.5197 3.69169
upperback 2.0503 6.6199 0.835167
thorax -13.3725 2.5413 -3.68008
lowerneck -17.2342 -11.2948 14.6232
upperneck -2.75733 -18.4574 2.36431
head 0.857355 -9.52079 -2.55874
rclavicle 8.46823e-014 2.22639e-014
rhumerus 105.888 -39.9086 -78.6766
rradius 49.4579
rwrist -152.682
rhand -35.8284 29.1979
rfingers 7.12502
rthumb -8.94423 359.408
lclavicle 8.46823e-014 2.22639e-014
lhumerus 22.6987 -47.0288 80.5395
lradius 33.9335
lwrist -17.5451
lhand -16.3257 -23.6472
lfingers 7.12502
lthumb 9.88593 6.10067
rfemur -38.5311 -3.86102 39.4041
rtibia 59.0182
rfoot -26.9673 -13.1423
rtoes 10.952
lfemur -47.9846 12.0782 -4.2486
ltibia 87.5595
lfoot -194.587 178.454
ltoes 6.03338
3601
root 15.3832 25.7492 48.3671 178.716 -20.5232 -166.17
lowerback 29.1677 4.60228 4.08086
upperback 2.21181 6.8414 1.01161
thorax -13.2764 2.61173 -3.78931
lowerneck -17.5095 -11.2236 14.4209
upperneck -1.42279 -18.3606 2.34323
head 1.37996 -9.34283 -2.64468
rclavicle -3.18055e-014 -5.08889e-014
rhumerus 105.61 -39.9093 -78.3013
rradius 49.2541
rwrist -153.01
rhand -35.2303 28.8438
rfingers 7.12502
rthumb -8.36699 359.03
lclavicle -3.18055e-014 -5.08889e-014
lhumerus 23.649 -46.894 79.9458
lradius 33.838
lwrist -15.1334
lhand -13.9267 -23.0363
lfingers 7.12502
lthumb 12.1998 6.58797
rfemur -37.6994 -3.78173 39.8561
rtibia 58.0891
rfoot -27.0538 -12.246
rtoes 13.1051
lfemur -49.6214 13.0637 -3.61238
ltibia 91.2056
lfoot -196.408 177.399
ltoes 7.85774
